<mxfile host="app.diagrams.net" modified="2024-04-04T05:46:09.347Z" agent="Mozilla/5.0 (Windows NT 10.0; Win64; x64) AppleWebKit/537.36 (KHTML, like Gecko) Chrome/123.0.0.0 Safari/537.36" etag="Wy7nsVU_Wo4ynighCT54" version="24.2.2" type="device">
  <diagram name="Page-1" id="rTb94Jm_jkeuYFnpbeHf">
    <mxGraphModel dx="1434" dy="866" grid="1" gridSize="10" guides="1" tooltips="1" connect="1" arrows="1" fold="1" page="1" pageScale="1" pageWidth="827" pageHeight="1169" math="0" shadow="0">
      <root>
        <mxCell id="0" />
        <mxCell id="1" parent="0" />
        <mxCell id="tuG5tCn2zZYMjYadL07b-6" value="" style="rounded=0;whiteSpace=wrap;html=1;fillColor=none;strokeColor=#6c8ebf;" parent="1" vertex="1">
          <mxGeometry x="63" y="215" width="340" height="150" as="geometry" />
        </mxCell>
        <mxCell id="tuG5tCn2zZYMjYadL07b-1" value="Order&lt;div&gt;Service&lt;/div&gt;" style="rounded=0;whiteSpace=wrap;html=1;fillColor=#dae8fc;strokeColor=#6c8ebf;" parent="1" vertex="1">
          <mxGeometry x="150" y="50" width="160" height="80" as="geometry" />
        </mxCell>
        <mxCell id="tuG5tCn2zZYMjYadL07b-5" style="edgeStyle=orthogonalEdgeStyle;rounded=0;orthogonalLoop=1;jettySize=auto;html=1;exitX=1;exitY=0.5;exitDx=0;exitDy=0;entryX=0;entryY=0.5;entryDx=0;entryDy=0;" parent="1" source="tuG5tCn2zZYMjYadL07b-2" target="tuG5tCn2zZYMjYadL07b-3" edge="1">
          <mxGeometry relative="1" as="geometry" />
        </mxCell>
        <mxCell id="tuG5tCn2zZYMjYadL07b-8" style="edgeStyle=orthogonalEdgeStyle;rounded=0;orthogonalLoop=1;jettySize=auto;html=1;exitX=0;exitY=0.5;exitDx=0;exitDy=0;entryX=1;entryY=0.5;entryDx=0;entryDy=0;entryPerimeter=0;" parent="1" source="tuG5tCn2zZYMjYadL07b-2" target="tuG5tCn2zZYMjYadL07b-9" edge="1">
          <mxGeometry relative="1" as="geometry" />
        </mxCell>
        <mxCell id="tuG5tCn2zZYMjYadL07b-2" value="&lt;div&gt;Outbox&lt;/div&gt;&lt;div&gt;Service&lt;/div&gt;" style="rounded=0;whiteSpace=wrap;html=1;fillColor=#dae8fc;strokeColor=#6c8ebf;" parent="1" vertex="1">
          <mxGeometry x="460" y="215" width="100" height="150" as="geometry" />
        </mxCell>
        <mxCell id="Z3jpUJO319Im8hQf2vFq-4" value="" style="edgeStyle=orthogonalEdgeStyle;rounded=0;orthogonalLoop=1;jettySize=auto;html=1;" edge="1" parent="1" source="tuG5tCn2zZYMjYadL07b-3" target="Z3jpUJO319Im8hQf2vFq-3">
          <mxGeometry relative="1" as="geometry" />
        </mxCell>
        <mxCell id="Z3jpUJO319Im8hQf2vFq-7" style="edgeStyle=orthogonalEdgeStyle;rounded=0;orthogonalLoop=1;jettySize=auto;html=1;exitX=1;exitY=0.5;exitDx=0;exitDy=0;entryX=0;entryY=0.5;entryDx=0;entryDy=0;" edge="1" parent="1" source="tuG5tCn2zZYMjYadL07b-3" target="Z3jpUJO319Im8hQf2vFq-5">
          <mxGeometry relative="1" as="geometry" />
        </mxCell>
        <mxCell id="Z3jpUJO319Im8hQf2vFq-8" style="edgeStyle=orthogonalEdgeStyle;rounded=0;orthogonalLoop=1;jettySize=auto;html=1;exitX=1;exitY=0.5;exitDx=0;exitDy=0;entryX=0;entryY=0.5;entryDx=0;entryDy=0;" edge="1" parent="1" source="tuG5tCn2zZYMjYadL07b-3" target="Z3jpUJO319Im8hQf2vFq-6">
          <mxGeometry relative="1" as="geometry" />
        </mxCell>
        <mxCell id="tuG5tCn2zZYMjYadL07b-3" value="" style="rounded=0;whiteSpace=wrap;html=1;fillColor=#e1d5e7;strokeColor=#9673a6;" parent="1" vertex="1">
          <mxGeometry x="620" y="215" width="100" height="150" as="geometry" />
        </mxCell>
        <mxCell id="tuG5tCn2zZYMjYadL07b-4" value="" style="shape=image;verticalLabelPosition=bottom;labelBackgroundColor=default;verticalAlign=top;aspect=fixed;imageAspect=0;image=data:image/png,iVBORw0KGgoAAAANSUhEUgAAAgAAAADqCAYAAADUOP03AAAABGdBTUEAALGPC/xhBQAAACBjSFJNAAB6JgAAgIQAAPoAAACA6AAAdTAAAOpgAAA6mAAAF3CculE8AAAAB3RJTUUH5QEfBjAEY+HAsAAAAAZiS0dEAAAAAAAA+UO7fwAAPt5JREFUeNrtnXe4XkW1/09JL2Qn58ye72cRCEQJJYBUBUGU7hURUQGRi9iwgFi4iHpFUBAVgSvqvQJyLYioFwGpghQRkAgqTUVEeu8loaWe/P54J/5CTDk5e/Z73jdnfZ5nHo0+z3tm75k96ztr1qzV0TFISOokxtFIQppqsAHS+0z6vEn/vZR2NNKHDLZEejVgxDhOUleH4ziO4zitjaSRwPpIexh8AbgIuMdgnsHC/jSkR4ArTfoa0t7AlpLG+Nt1HMdxnNYz/BOA3QyONrjSYGZ/Df4K2osGNxucYLCPJPxtO47jOE5rGP/dkH5qcJfBnEyGf8m2wOAh4HykAySN9zfvOI7jOE2kKIoOYuyQ9GqkHxs8ujIu/gxC4GmkayVtAXQUReGD4jiO4zg17/a7FCNInzZ4sElGf1ntJeB/FONUScN8dBzHcRynJkx6ncFPDeYOsvFf1OYbXGXSbiaN9hFyHMdxnPzGfweD61vE8C/ZbjfpIyZ1+0g5juM4TgaKohiO9O4Ujb+whdsjBkcWRTHKR81xHMdxKjBx4sThSO81uDsF4C1s8faswZcnTpzoIsBxHMdxBoJJw5DeZfBQGxj+xdvzBl82Tx7kOI7jOAMSADsY/LXNjP+i9oBJH/TAQMdxHMdZCSStbnBDmxr/Re3vSDtI6vQRdRzHcZwVUBTFSINTDPraXAAsNLgu9PZO9FF1HMdxnOXv/DtM2s/gsVXA+C80WAAcJ8kH13Ecx3GWBdKGBjNWEeO/qD0paQcfXcdxHMdZ+u5/rMFRBi/UmMf/2VQ06C8Gf0j/+XeDp2qsJzAf6TxJk3yUHcdxHOdfd/9bUE+ynxcNrkY6CenDwG4mbSdpM5O2M2kXpPcjfc3glwbP1dCHh5De7aPsOI7jOK/c/Y9BOiJzjv/5Js1A+gAwPYSw2vL6EEIYA6yFtCfSOZk9EfOBMyTho+04juM4CYMpme/8zzTpq7Es15Y0fCXFSFdsVBw8yODerLkB4M0eEOg4juM4CeBdGQ3tw8CemTwTmxn8NuOVxC9LGusj7jiO4zgNAXBpJgN7p8W4h5VltuQ7ktZOAYOV+wf8EXi1j7jjOI4z5JG0msHMDAb2UaSPqIb0u0jbG9yeIyBR0i4hBM8O6DiO4wx5AfDGDC722Ujftpqu2gEjgA/nCAwEjpQ0zEfecRzHGdIAX88gAP4saZuahcpU4MIMAuAywMsFO47jOENcAEhXVjSqLyMd34y+Guxr8GglASA9gZcKdhzHcYYykiZkOFt/GNi6Sd6KddOtgIUVRcCaPvqO4zjO0N39x7hJhrv2v2/W1TpJIw1OrpqwiBjf7KPvOI7jDFlM2s3gkYpn6ic2VbTARw2eriRapIN89B3HcZyhLAD2Mni8ojH9dJP7/I6qosWkw330HcdxHBcA1TwA72myB2B7g/tcADiO4zjO4AqApp6nS9o8lRR2AeA4juM4gyUATPpYk/v8VoOHXAA4juM4zuB6AD7XzD4D7zZ4zAWA4ziO4wxUAJTl1qlMbpVrgGdJakpufUkdBkdWTQmMdICPvuM4jjNkkTS18nk63KsmJdaRFAzOr5oISNLrfPQdx3Gcoe0FgJsrGtSnkPZtRl+R3mBwa8X+zjMY6yPvOI7jDG0BIP2iokGda9LPrCzLmnf/Y4AvZKgIeIfVULLYcRzHcdoK4JAM1QAfRdq/5t3/FgZ/zVAN8AfACB95x3EcZ0hTluXGBgsqGtY+g1+btEEdAYHABOBbGfq5UNIHyrLs9pF3HMdxhjwm3V/VsKbd9VmSpoQQsvUthDDKpKNy9M+kJ0x6jY+44ziO4zR22F/JYmBhNtKJVpar5+iXpAlIHzSYlUmg/ERS9BF3HMdxnI6ODsW4dYbgukVtjkk/IMb1KomSGCenO/+PZhQnHw0hDPcRdxzHcZyOjg6kEuncTIa2IQLgNwbvl1Ss5K5/BNKuSGcZPJuxT9cjbd6K778oiu6yLEHaFTgU6ViDUw0uWKydh/RdpGORDrYY3+jeDMdxHKeaB0DqolFm97mMBneBwbNIV0r6cG9vb0AabtIwi7FbUpfF2G3SMKThobe3kPQWpHMMnjCYm7EvLyF9SdKg7/5DCB2SupFGlGW5LvAlpBsM7k/P/bzBS8t4/rnp/5uZUjjfZ3ANcGSMcdOyLMdYjB7g6DiO46yEFwDWNDgrR6T9clzwV5h0qklfQvqoSZ9N/z7f4Kma/m6fwc0mbd0CQms1SVsg/SfSn5KnJNuz0njOQ5HWVVmuVhRFp89sx3EcZ7kURdFNjPtmqA3Qau1FYvxiURSDdvdf0mpI2wDfSDv9Op93AdIdSF9HeoM86ZHjOI6zIqwsJ6Wz59mrkAC43srSBklUdUnaGDjO4C81eleW1uYb3IL0VUnr+ux2HMdxlguwqUm3rxLGX3oZafdBElMjLMZ3G8wweHEQ38PsFCfwtqIoRvoMdxzHcZaKpG6L8R2Zg/AGoy0w6WhiHNXk99fZ29NTmPRNg2cypFnOFQfxANKXyrIsm1W+2XEcx2lPT8BXU8R5Oxr/eQY/AdTMdxZCGIa0qcGlTXb3979wE5yOtL6kLp/ljuM4zr8KAKkX6Yw2FAFzDa4yaOqd/xDCcEnbGVzbosZ/8dsCF0ma7rPccRzH+ReKouhUjOsa/LSNRMACpN8jbVsURdPuw4cQuhXjtgZXp+C7dnhXF3hwoOM4jrMsEdClGKel/ABz2sCo3Rhj3KqZxr+jo6MjxriJwQ1tZPwXHZOcK2k9n+mO4zjOUj0BZVmuDnwvGY3W3PnDNbEs12928pvenp6JBpe1SLDfSh+XAD8syzIUReGT3XEcx1k6Jp1g8FgLnXH3pfTFPzHJBuF9FAbntvqZ/wpFgHRsLMvxPsMdx3GcpSJpNNJ+Jv1mkO+2L3Jh32zS54CmG/8QwiiTDjV4ehXImfAYsDcwzGe54ziOs1RSdrvpJh1r0qODZLDmmHQq8AZJowbjPSBtY3DLqpQxEZjiM9xxHMdZLlaWE4hxV5POa2Lq4LkmXUOMH7CyLAfr2YHS4ORVIFnSK1IHI33TZ7bjOI7TL2+ASZOQtko5A55JRrEvc077F5Auk/R2laXFEIYPVtBaz6RJXUhvTc9aVw7/2enq5QtLtJfTbYy6Yg6ekPQan9mO4zjOSiFpU5M+Y9JvDf6RjOS8AQT2zTS4x6QZJh0vacdWeUZi7DW4qIZgxlkGfwNOk7R7CGHy4n83hNAdQ9jQYnyPST81uD2JgqxxFUjfl+SxAI7jOM7KE0IYFmPcFPicwZ0raYRmGnxV0nYhhLEtJ3Ji3CHzkcc8g9+Z9FnFOK0oihWm6C2KYoSkTQyONrgtc/6B20zaxGex4ziOU8UjMMXg8pU0QA9L2qhVn4nG7jtfMCP8DzAggwsMQ9rJpDMzegNeNDhWklcOdBzHcVwAJM/G6gZPZjK0TyIdKilU6VNK2bw28O3kPcnRt8uBaT6DHcdxHBcAjR33QZnc/y8iHVaGMDZHMGNRFJ2Sxpv05Ux1Gx4z2EuST2LHcRxnaAuAEMIIpIsz3HB4Aem4EMKE3H0simK0wc8y3RI4TpJnB3Qcx3GGtgCIMa6fAu4q1SwwuAKorQpfLMv1Tbo5gwC4BJjqs9hxHMcZ0gIA2M3ggYpGdRbSvjX3c5jBhzIkKbrdBhic6DiO47gAWHUEgHRIhuQ/f2yGW92k9Qyur9jXlw3e6LPYcRzHGbICIITQaXBq1bN14D+aJFbGpBwBfRX7+wlJI3wmO07WdbFTUrfFOMykESaNAEbSKLY2JjW/huu4AGgFyrKMBudV3VGXITStaqHBngaPVOzzKcBYn8mOU2kdHCZpIjAFaSODHYADTDrUpFNMOs3gF8D1SDemdoq/OccFQGs8xxoGF1c0pjcajGtWn4EtDG6o1GfpdJPGtdOcCyGMR9oR6d8G1GAr/3KdHLt8YgzWqBr6EeC/01rY3ziiK/v9rUtTBjzfG82rgDouAGoVANLPTRrdxD6vnaHPbScAYozrJbH1wEAa0tn+5ToVv73VgQ8anGlw6wBzc/RbABgcMND5ntr7fNQcFwDL+sCkTQ1+X9GYft+kUc1chAx+WSkGQLoWqWizObeRwaMVnvka/3KdAc69McBeBpcaPF7RY7gyAuDgin/r4z56jguAZQuArQ1uGoIC4GakSS4AHGe560Mn0lrJzf9EpkRcLgAcFwAt8oFvYfCHigLgjCYfAaxpcEHFheEsYHybzTkXAM5geAhvyFya2wWA4wKgFSDGtQ1+XVEA/NaksU1895sY/G6oxQC4AHCabPw3Mbg2s/F3AeC0N0VRdCvGgRihxxTj9kVRDG+VZ4kxkmE3/bjBhKYtTI3Mhfe6AHAB4NRm/KenQNv5LgAc3/FLEyRtCxyNdFZyi61sidq5BjcjnQccL+ntksrBfK4QwgiD0yt/1DFu36RxGGFwqMGciomAjqKJcQsuAJw2mmdjDL5u8EINxt8FgNMWH8EwpAlI25n0rZQ//qmURnZBhsI5sw2eNbjf4GcmvROplDRy0qRJnc18VqRvVC4FLH1HUu39BlY3OKvi++9D2rOnp6fLBYDjvGKOdSK9vbKHzQWA024URdFJjIXBRkifQfprjR/B0tp9SN9WjG9ECkVRNMVAAQcaPFmx708ibVhzP7uQdh+A52XJ3f+jSFu14eLsAsCpe45hcEbN65wLAKe1KEMYb9KOJh1vcE+m6y4DbU+bdBrSHoqxLIqi1p01MW5jcFfFPs8x6VQry9qu1sUYeyoHLDba74H1XQA4zhK7f9jB4CEXAM5QmvgbIp1o8DeDeYNo+Jc8Jrgf6X8l7SypNm9AaIif6zL0+TGTPqKain0AH89QCnihSd9XjGUbzlMXAE6dHrZRwJEZ17B5KVbqJ8BXDP7D4NMG73QB4LTCgjoW6YMGM9LZ/sIWbHMM/oF0lGrMXGfw8wxejz6DmxTjDkVRdGftn7RPipeo+j5fQjo4hNDdhvPVBYBTnwCQepCuybRuXY20F7AhQFmWYwbiyXQB4GSnLMtuYpxu0o8NnqlaWrZJ7UWDy4jxTYpxeFFU0wKSOpCGW4zTaVTsejZTP+cb3CbpTT09PZWMbFEUHcQ43KS3Ju9MjnH6C7BdmwpWFwBObcSy3CCDh+1Fk75r0tTe3t7KXksXAE5WQgijFeNe6Zx/YRu2x5AOK8uyDCEM1LB2A+sgfabG874Hkf6NGHsGOE6dsSwj0icM7ssoTk5VE5MWuQBw2sYDAPtV/L7mAj+VtGZGz6QLACfbAgrSx9Ouf2Ebt+dpXLtbZ6U/8hhXR9rP4Kom9POZdIVyW4tx/EqM0xiTtkf6XuaxehRpvzaevy4AnNowOKri93UPsFvmPrkAcLIsnqsDJxg83ebGf/HYgLMlTeuvUQXenK74PNXkfv7Z4BRgf0mvWsaOf2SMcZo1diHfMch9BbMP6TeScAHgOEvZHEhnVglaRvpV7jglFwBOjoUzJuP/3Cpi/BfPLPiLFYkASVOB/zG4O0sU/cDd748a/NHgfINvIx2f2kkGVxr8yeCRmtKPvkiM72nzeewCwKlTAFxR4ft62aSja/BKuABwKkygRmKL01s4yj+HCJhh0raLZ+KT1B1C6DHpw+mcf04L9bkv9Wd2arX3DekSK8sRLgAcZ5kC4MoK39gsk/Z3AeC00oI5CThlFTX8S2a3uxBpY0ndSBHpXUhXD+KOv5XaU0jbrQLz2QWAU99mqXFUN+BvTNJrXAA4LUEIYTzwtTa54pdLBFxk0u7Ajw2ecMPPQoMXgC8Co9p9TrsAcGoWADNdADhtT1EUwxTjh5oc7NYq7S43+ovFHUhnk/FakguAIeVB7FaDVy9qEydOHLWqPq8LACfN+ymLzXmT1F5Hpymf9S1DaffvbantJklvasesfy4Amuwx7OnpsRh3Bj5hcJLBxQZXpCyhf1qsXWVwucF5wIkmfUjSBkVRtL0wcAEw5Az9WibtY9LnkU5Nc/7ylL550Xz/vcFv0v9+AdIXTNqNGKdK6m61B+oAphlcUFMk+VBrCwyeb8MAyj6Du0x6h6Rhq9AH25ICoCiKDkkjkcZnaTCqzgJYZVkOA8aatAlwuMFFBo+lbJgvpqDUvn58G3PS9/GkwT9MOgVpR2BSf3dNQCcwtsL7GtufOQ5000h9vszfMphVpYCZpK372ecx7S4A0riNyTXny7IcVuO60UmMI4AJinEXk/7L4MZ0TDzT4KUUK9bXj3X1pXSb7gmkm4D/jGW5AdLYGEJ3fzLUShqGNK7C+rD0+YM01uDoQTSWL6SXs6g930LFhVb2WR5NeQZej/Rpg8fbyKPyQB0RyS4Alk6MsQc4EvgD0k0V29WSDiyKYkQN728M0nqSDqZx7XRWTbE4NyF9AWl9SaNWYEgCcFaF93Vef0pbAxsiXbC836q4aZpncHs/+3xKuwsASWvQ2BHflKFdGMtysxr62IU0yWA7pKMqBnmuqL7KZUj7s4w8L0vY6V2QfjPg9wU/WfpkiXE7g4ebeK/9MYM/GJxl8B2kLyL9x2Lt8wbfNDjT4LcGD7ZDlkGDS5HeK2l8mkgF0kdNur0NRMCDJn1wFXXZtZwAMGmcwaHpW8iRrOmEEEJP5vc2yuC1Bp+nkYeiKesD0s1In1SM64UQhi1jMTSkv1T4O/8waZd+LLqvbaH4oLYuByxpMnBqpnfxBDVUUJU0PtVQ+W4TyjsvarMNLkfaw8oyLGfN2Cd5zQa6jv1haW7IUQaXNuPefdrpnIC0L7BlCGHScs8XGzcSpgN7Ih1L40xlVgsaz78YfELStCWr+YUQRhPjPibd1cIi4BaTDrB2C1ppUwEAdAEH5VpggAtCCBMz93EK8IWUgGr2IMzJWcAVSO8kxi4XAO0tACQF4NuZ5tITJn3JpN6Mx3HD01h/dxDr3TxicIqkLZdWFbYWAWDSO+p2tyPdARyMND3GOGFlzymLougsy3Is0jpI+yH9JkMJ3hxtZhI0my7v7DKEMEoxvgHpxhaM9v8NsD0wsmMVpdUEgKQ3VunPEsb/PEnTM3sndk+et5ktMEfvQ/riksGCLgDaRwCEEFZDOiJTfZLnTDrapJ6M3+MkpE8Z3NQCR8+zka5XjG8LIQyvVQD09vRMMLimpgfpM3gG6TtIUyUNzzRYw2i41g836fFBEAJ9KXvXJSa9SdIYSf0SMUiTDU5OAVOD6Q1ojA2ciLRWy0WlrqICIITQJWkngzszHaWdo8bZfGeGd9RZhjAxnXk+2mLeqpnpqJAQQqcLgPYQAEVRdJRluVo60s2RTv5lk44yaXS2s35Yz+DcFliT/zWWLMaPLb6xzCoAiqLoMumjNVX4m29wo2J8R1EUtURpFkXRpRi3AH6dBq9Z5/wzTNqvKIqRAzQCY5Dek4TXYOywZpk0w8pyx44hQisIgBDCMMX42hRFXHUM5xn8Ctggo6je3OC8Fg6+nZcEz7opSMsFQIsLgN7e3pFIH0iB0NWNP5yR0SsxCnibwQOtHFSO9Gkry3HZBUBZljK4sKYd9Pkmbd+MxR1YL6UtrjM2YI7Bn5GOKctyzUyL7lSkw5Kr9aUmTKYXk3g5SmU5pc7rYi4Almr8t07343Ncs73WpDdm+4akbdI8bPVA23kGpylGcwHQ+gIAaf9Mxv8Fgx+VZRkzGf+xSO/NdQxXc3vSpANDCGOyCgCk3Wqa2BdLWqfJC7wBx9eUw+AJpO9I2kGZXE9L9H1DpENpBGI+XcuOH85FOogYNwkhjO4YYgymACiKoiPGODVjjo1brB/X11bivP+tKWlPu1y1nQV8BWkNFwCtKwBM2jFVUc2xcflfxbhWjk1L8sB+IAX6tcP17D6DvynG3a3hOa4uANL1nmNqqCZ3K9Jr+3MmXsMi30tjkc09AH+IZbleURRdNfZ9JDAVaft0D/qWqvdLDa5FOhJpZ2CNpUWVugCoXwD0TJo03uCcTEmhbjbpTRnfy2usedf7crZnLMZ3ugBoTQGQjP/1GQTvApN+mdH4j0xeiXvbLNvtfBpe9f/MIgBM2iClKcyaSx/pLTaIAWVIr0qR9jkH987+LBSZ4ho6U2a4ScA04L0mnYh0frov/lRqz6agmkX/vtPgYpNOsBj3jWW5lkGhGEctCpoaygyWADBpFNL3M5yr96Vo+HeG3t5hGRbCTjXO/K9ukds0A7odkJoLgBYRACmobtN01LUgg/G/KpblujmMf29vb7caO+gn2jTV/dy0MXyxkgCQ1Enj6t/zGTv3LNIn6wr4W5nAQGLcyaScgR0vGhzRKpHyRVEMjzFOLcty3VUlV/+qKABM6jXpGxkCVBekTHF75fi+iqLojGW5NtLZQzxdtwuAjALAyrITaWODSzJdT74qhDA52xoQ4+taPOCv/qq3SQCMAY7IGZgDnCtpjVZY7K0sVzPpmMw3A/4PwE2pC4B+/r3VTPpCppiOO5DeXRRFrmu045GObVLgqQuAISIAYlmaSb/I8pzS5bEsN8j4/U9OKawXDnkBgFSadE7mILm3t9KCj/S6VJEp1zP+0aTXuil1AdCPvzUW+Eg6Z6ycK9xg35yeNWC/TOmH+xuAeg/Snena61/Tf78/FVFpBwEQDfY3+PhyWpX4jhcMvraC31/U3t6KAiCE0It0SqYx/ZOkbUMIXZm+/THAV5oleJGeSHP8VoPrTfp7+vdjrSIAppp0b8YfvVDS2BZb8EchHZfRC/B4q4kcp/UEgJVll8W4b6a6Gi8T4+E5c50XRTHG4PZas5jBjTQCjN9hsC3S5kibppiWjZE2NdjC4I3AZ4AzKp7l1yoA+mlsh2w54KIoRtKo25Jjrb0V6S0553w67q4z4v8Z4PzkVX8z0lZImyJtZNL6SJukf78O6V1IR5p0oUkvDc4RQOM+cq7Anz5Je7Xoov+GjDmd+wwOy114wll1BEAIoTs2zhlzKP3niPHQsizH53oHIYRuk46uYSGcl3b5JynG10vqkTRKUlc/xmUEMC7GCLAP0lXJmC5wAdDaAqAoikW1Wr6QIZlcn8Ff0lXrbN4uK8u1TDo383zqS+l6/2rSoUjTkMZLGrmijJwhhK4Y40iTVrMYp5r0mZQY7KVmBCY2PACNIiQLM53VPDJp0qTxrbrwm/TLjC/2O0gT3Zy6AFjKYtgVY3xTJsH5JNKhIYRxOd9BrCcI6mGkkyWtnXGs3oR0WYqf6HMB0JoCQGU5Dumz6UZS1bG4XxlzW6SjrhE0Mt2+kLVqn3SrSV+wVPE1U0zOwek67pzaBYDBidl+EH4OdLXqwo90UMazxvNNmuzm1AXAksZf0pZIV2e49/w88HVJk3I+f0p+ckrGBWZOykb475ahDsFShHs06TCTbqspuZcLgAoCwKThJr0/U6KfB036cA1r/9rAtZkTUP1gWZX6Mngr1kc6rabU/K+IAbgo4w8erBoWgIwL/2syJWBZaNL1SK92c+oCYImdxsapnHZV47oAOEGSZV8MG8d+t2T67l9C+lmMcdMQQm3XfkMIYxTjvyH9riZPgAuAgQuA3TPFbdxn0kcs89GqpG6kA7Kt/fAC0mF1fJuLH6nEsuwFPltXTMwiAfCHjD+4VQihlRf+EbkCAWlEc27g5tQFwCt2qvCTHDtrGnXAe2t49lEGX8q0GM41OEsxvqoZtSSKouhGWq+ma3guAAYgACRtafCXTDv/j1oNAeQGoyzX7l96mRg/HUIY0xSvNYw3+FC6KVOLALgp0489ibReqy/+GXc+Dxps7ObUBUAy/uOtkUxnboYguu8DteTPNmm6wVWZgp/OKUMom11ISjFuafC3zJ4AFwArIQBSKettUtBa1XF41uAIW6zUbU5SvEuOo6OZxPjJsiybesvNpBEmHZKyFmaPAci1I/4b0tRWX/yRclY528rNqQsASRNNOilTidNzTZpWkxu9C2mvLFk/pT+HENYajPH7Z4bPvK5RFwD9FAAhhG7FuLHB5TmyxhocOdBy6v3cRf93jgywwEmSykGzXfCZnDEwiwTAwiElAPJMWhcALgAW/VYAvpih/PRsg3NM2qjG555AHqHyuElvs7IczDEcCxyeMUjKBUA/BEBKHb++wXkZalrMNPhKncY/hLBaxSJRi4rvXKZBPvKdNGnSGJOucAHgAsBpAQGQouk/nuGuf59JvzRpes3HX1MMqh75zUM6XtKEFhjHtU36VaZ73S4A+iEAyhAmGfw4g/Gfa9JxZQhFret9w1P0VNXstpLeP9gVVK0sO0zaPlc8wNAUAH4E4AIggwDIXEr0HmXMdb4Mt3mHYtw8Q/DfTSZt1exz/2UeBTTG4HEXAPULgKIoRhuckiGN7jykH8WyXKMoirrX+yMrHnP3GVzUCoI3bWDHWSOVcbYgwJszGcP7Daa1+uKPdF2ml/cU0qZuToekAPidpJ1TLe4qxn+BwW2K8bV1G1Qryw6L8ZDKqX2lY3p7e0e1kEdvRCqP3ecCoFYBcBjw5QyJdF5G+mEsy8l1lyaX1G1wUcW58bLFuGMLrV0dJm2VI5g9+zVAgy0ktfLC79cAncoCIAWfVc2iN8/gekmvL4qi9uRZ1lg4zqjY59tN2rHVxtOkd2a4feECYPntbxmqWc5DOi2E0JTgEaQN0y2FKuv89a0230MI41Isz/wcAuCyjMcA7x0qiYCAP1FTtLbT8gIgxxW6W5B2bta5Io3grdsqJSaSzg4hrNaC4zkhw7moC4D6269DExPFmPSWqtkJkT7Vop7s/QweyREDcFrGWgCn0Y+iH4P40nKmAr7YpDXcnLoAGMB3ch8x7qOa7j0vwwB0VnTfPo/02VYd0wzeDRcA9bbL1eQjU6T3VvzOZynG17TifI8xTjO4LocH4JCMg/yAQXerLhJIZ2asBOXFgFwADMT4z1KMe4QQmnqOHkKYUrHvj1iM27fsmMb4HhcALSsALkfaUk3eHCIdXkn0Sr83KbbifA8hjDDp/6rYs0XVAHfOmFGrz8py15bcIZTl5gZ35HpOpC82Kx2ks+oIAKRPhBC6B+GZX1ux73cNZhKUfhi4dSqKexcA9bS/mrRzjLFrEObEN6rYNuBbylTlryaBc3SVmLbGEYC0jklPZNzh/KCZrs1+Ln7DrFGqcmam55xp0t5uSl0ADGBRuR5o+q7CYnxbxb7f0MpjirQG0kMuAFpOAMwFjosxNv0ancEJVc//Y4wjW3bOwwFVAjMXeQCgUb0sW01wk7Zpqd1Bo4BIzvv/fwa2dVPqAmCAV/9OCiGMb/I38PGKi+GPW1wAWMWMby4A6msPA/sBw5v4jY9JOQuqzPl3tEK+i+XM+bdVyYGB9IeOGOM4pK9mHOw5Bj+U1NMii/1Yg89l3P0vNDhfMU5xU+oCYIDtScV4YFEUTVsQh4AACCZd6gKgJQXAQoO/xhinN/Ebl8H/VezzW1t8HdsiFaUbuAAIIXSZtG+OEqav8ALAvi2x+4fNM5WrXDwZyrF11j53WlsAID1p0kuVYmXgFqBpQXWVBQAc08pjao2CTD91AVCbAHiiagZApPOLohjtAiDbM06vcv0V6Q+LzhJeYzAj8z3n3wNbaRCvBQJm8MuMkf+L6lbv08RB7gLGI/UoxvUl7WPSN5EuRrokJbp4yuAppFuRLkmZ0b6NtG8sy3WRekwaZzF2dzg5BMD1NAKM5lY8CrgIWK/ujGiZPAA/bHEBEEy60gVAPQIA6QSDayoGjM8GjgVGNOEbX+UFgJXlVgYPVRYAKbPQiTlLDaZdw3mKcWoTcz/8kxDCGOBbNbiy/mQ1522X1EWME62RyWpP4CyDuyokcLnTpB+a9G6TNtYQv76YoxYAsDpwflVxiXRiWZYTm2AgV/UjgNWR7nABUJsH4OPAdgb3VPydR4EDQgjDa/7GJxmcXrGve7RyDIBJ76lS6OifAiB9QO9OrvucxnIO0skhhKbGA4QQxqcqbc/XIADuM/ikSa+SlH1HXZYlKYHFd9LuPufRzNx0HPItpJ0kFR1DkBwCINWk38Hgtopj8hTSB5pgIPeq2M9LW1wArFWxJLMLgH5UA0zratVkan9QjFvXnQI7wy2AA8uyHN6ycx4+WWWuvUIAxBhXz1ha85XXQKRvW1mu3SS3SIn0uZqDvJ42uMCk/Xt6esZlMkpjTdodODtD+cr+uJ//DpyMtIukIZXPIFc5YEmjgU+nokBVxuNOSRvX/MxV8wDc0dJ3omEHTwRUvwAoQyhM+kmGq4E/l7RmSwsAOBEY16pzPmXxnZdFABRF0WUNwzmrBoPzksF5Jm1Ws0tkDZNOTga6rwlG9BGkMyVtMdA+F0XRTYzbWsPNf38T+r3kjY17kH5cluV0FwArJwCS4ZlkcEbFXVGfwbkhhNoqaYUQVLnaZ1lu3MIC4HAXAPULAEmdwJZVi+wYvAAcCdQWFIj06YpjcZG1yG22pXzPPQa/rpwKeIkXRuaI+cXbfIO/I30AqWfSxIlZ3D9FUXSaNAZpp1TZcG4TDeii53oQ6WjFODWW5fD+1rhGmoR0qEkP5o6/GMAzPGbSRwzGt3JBp1YTAOnYZppJN1VdEA1OCL29tRTbCb29XVV2CwbPmXRIK45nURSdwCUuAOoXAElsdRnsneHIeLZi3L2uc3akD1fxziE9irR2K855YFuDP2cVAGkX/bGKC0V/2gVIuwJrSBo2wEW8GyiR3mAZSiPmuuuK9EGT1lrRrt9gusFPWqDPS3pqzkTacDDS1barAEgf5FsNnqmcb1/6sKRRNRiAzoq7tgUGv7CyHNuCu6E1DWa7AGiOAEjvfDWkY6t6jJHujTFuVJNHeHuDv1fpn6T3tuD61W1wWMXiXksXAJImWGMnXbexecbgFwaHmLRdWZbWn9sCIYSJxLilwYEGP0gFiBa0kBGdbXAe0h5Wlj1Leb8jaEzMGS3W78Xr1F+CtMNAxdlQFACSutOC+FLF93+jpDflFmAmdRj8sGLfbrUYX99yuyHp8xk2AC4AVkIAJNG7jsFFFd/9fOAXkqjhO1/HoKotu7wFd/+T05HxwuwCIC0We9YUQb+sXedfrHGl6jtInwT2M+mti7W9gEMMjjf4eRrUWS1oPBc/033ApFORtlpkSEMIo1I09p+a4GWp2m6WtL0LgP4JgKIoOmKMawLnZjiOOS+W5RqZF40O4FMV+/a8weckjWyhsVSGRd4FwAAEQHr/25hUNeD6GaTP506PLWmkSRdWjKt6vu4A3ZU87upCemuOG3vLFABIE6mYR7mCm/HZtDjfv1h7KHkM5ra40VyaN+AO4Oje3t4g6e0GdzY50K9SzQNJW7kAWLEA+KdrTtrR4NaK7/1lk07M/MwdBltlmBNXm7RhC+3+P5zp1owLgAEIgKIoupEOyrBhuhNpz6Iosnq+gK8bvFzFJiF9r1Xmu0mTTDo1h/d4mQJAUqdJWxrc0KJu6nZrc1LO5ifbyPgv+jD/LOmNIYQuFwDLFwDpA+02OCjD1cCXJe2d8ygAWIPGN13JQ4F0RFmWg3p1tCiKDivL6anIV58LgMERAGlejacRzzS/4lpzvUmb5QxCBnavUjEvtYdMetdgB0fTuIGxe666NssUAOkDG5aSA93TZkbLW+YbAsCvYllOb+WsWK0iANLvjzPpOxkC025XjNtkfO7xKYVx5WRYwBuAQRvDGOMEpK9liLlwAVBRAKTfn2ZwXeXMmPCzGCMZ5/xEgzsyeKYvRnrVoO7+y7I3Z8r+5QqAdGY9HumoFj9vr62OtRv/VxRAOlUxygXAigVA+hvTMnyscw3OAtbM9NzdBvsZvJhhTlzR7Ayfiz3HCGCfDGlpXQBkEgCShiG9I8OYzEY6ImelTIPvZpgfs0z6ig1SGnVJo006Omuq/hUJgPSHMfjeEDN4fzbpE2kBdyGQ7oEDhzSjkMeqIADS3/k3g+eqvneTjrKynJDJJZqt8BfSN0MIvYOw+980BdIudAHQGgIgzfcJwNcybBgfIcY9Mh4DbJ9pjjxETdd0V3DcNdzg/QaPNV0ApHNNmXT1EDL+O5k0nBjXT2mFH3QBwEKDu5HWcwHQPwHQ29s7AumYHAuPwZ45rmWmwl/HZ7qFMhPpK81MEZzu/M+oIe+HC4CKAiCJszWRLq14FNBncJ2kjTIJgAnAzblK3SPt10TjP4xG0Z9/5I7H67cASCJg7VQrYFXdES8wuB3pLZZKGBdF0UGMw5FeQyPy8ukhHhTZZ9IPQgjDXAD06+90mLR6KktadUH8h8H0DAtKB7BL1QQpi7UXkf5bZTnZyrK2GBFiHB5j3DjHObMLgPoEQFEUnZI2S/lZqtYLODOW5eT+ZlZd3tEX8NGM82YW0rvrTGMcQugoy3JsKgz3YB1xeCslAIqi6FLjAzw7Y+BNywS6GVwvabeiKIYtZyK9DemSJhTrWeGia3C3wfUGVxpcltoVBjelq4azagrenBVj3MEFwEotvlsb3JJhPC61spyU4fnHpVKpuXJRzDHpZ0jbTZw4cVjmseoEepHelyGYywVAzQJgsQ3jezPEmswEjowxVk6PjbSuSTnT3D8LHI20du4NUVEU3SZNQfpyxSuM+QTAYgO7YcrgN3sVEgDXm/Smfqnbslzd4BMGv6tzcJbhoXjQGolmjjLpzTHGNRYPlpHULWl9pJ1NOszgnAzpaZd2DewcDVIwTDsKAEkjTPpAhuQdfSZ9UVLlnYdJOxs8ktuIIh2EtN7yhPRKLIQjTHqTwf/UXN3TBUBuAQCjU+bJqiLzLmtkVa00n6wsx5h0aOaA9hcNLjZpP6SQaW0qFePeae2u1aYMSACkxWMD4L9WheuBwIUmbbOyCzqwCXBESlRUfx4B6Rxi3BNpsqTufvZzDaR/N/hN5v7ca9KbXQCs1AI00aRvZxCNDxu8J8M7GJUhNfDSo6XhcpOOUIxbhBBWOpo75Zl/cyrnemuTsma6AMgoACR1Im1scE2GsZmB9OoMXoDpBlfVMHceNjgbOMBinDKAb7EDaU2T3k+j1HJT0tsPWACkTk9COtykl9vU+M9FOlnSOgNN8CBprMHrkM5IyX7y91N6CekTJk0uimKlk/EAXZKm07iX/lyud2fwzZxXdVZ1AdDR0dERy3Iq0o0ZPEEzgNdWfQ8xxmlIT9Ywb/tS2uA7kC406TA1akuwnDFZlxjfY9I3kK40uK/JXkYXABkFQBrT4SbtbXBvhiPan2X47kekdNhP1zTnH0+3U36AdKCkLYuiGLOMvoyWtBnwQYNT0xHhE81MEV9JAHR0dHSE3t6RknZNUbntciQwLwX7fSj09o4LIXRWnFSdZVmOUyM/8zUZjwX6THpMMe4fY6yUez2E0Bl6e8cjHZwjh3Rqvwc2cwGwUi7tzrIsN6taxctggUk/txjXqpKdrCiKTovx47WJ1/8vWOYkd+msJEKfQ7oc6Y+L/p0Ew8tJXA6GZ9EFQGYB0NHR0dHb0zM6Uy6Zl4HDrCwrbTp6e3vHm/TTmg3t/DSXX1hsft+J9JsUu7XknB+USraVBcBi7s3JJh1ncFeLG/8nTDrTynL9mgzLajSKT+Rw39xNI/1ktl12URQjgc9lCmKcafBBpRsTLgD6fXzWZY2rpS9UPhaCY4FKV/CAkkZlsXntfpznAqD1BEDagPSmuLGqc+wBk/aoeh3WynL9DPU62r5lEwCLBezsRuOWwFMt9rCzaJxLfqynp2dsjYZlNNIVGXYwz5l0RAghe1+LohhJQ6zleK/flFS4AFjps8hIYxdSVfk/DexbcT50KsbXIV1nQ/uKqwuAmgRAEr5bGNyWwZt0tcGmGeIB3pMKz7kAyEksy9WRDqBR3newUwjPBa5BOkQxrlf3/XVg0wz3q+eZdLZJk+vqZ4xxrUyZ1C4b7PzY7SgAJHVZjNuYdEOGMbhD0loVj4hGpDLVd7fxgvZkxQJMLgBqFADJ6B6Q4ah4tsH3qFiIore3d7TBMTUff9Xd7qly5FyLAFgU/IE0GdjJpDNMeqHJL2a2SdcAb0d6VbNSN5q0X4Z0jc9K2qnOfsYYh2X6GO822NwFwIDckCNM+kiG+dJn8LOiKEZVfCdj05x4ok13M4dX3GG6AKhbAMS4mkn/neX4UTrEynJkhfneoRih0Z92TG53o0knVQlorE0ALB4gZ9IoJAMOS0Fyj6fgh1wvfUFKTPSkwS0pOcN0k8Y0+3za4EsZkl/8qr/X/Cq4fTuskRjj2gzvftfBLpPZjgIgBUiNQ/qfDEJsFtKXTRpZ8b0Mk7RHxtsizapW+UOktamW6MUFQM0CwMqyw6Rp1giGq3pM+gxQaaMUQugsy7JE+maySe0y55+W9EmT9q/i9apdACwtToAQNjDpYwanpfOc2weQWXBe2n3+joa7/ItWlq+tuguqunga/Kjq4Ep6WzP6G0IYjfSFqoE5wBGqaHiGqgBI46BMeRruM2lfSZWLNaXcEfe3wUI4x+DyGON6SOYCoLUFQLIB3Ypx90wB47cDUzJ8gz1I/9UmIuB5pK+GECaatE9bCYAlg49CCBORdkvpa1fqI0HaP8YYi6LobhGjElKWvkru/1iWsVl9TuU7q2aDOw0Y6wKgUuzIVpkqfc1A2rwoiqpXW0cD/54ipVs1MHCBwe8kbVUURZcLgPYQAMngjrXG5qOqp2m+wfclTcokAo6uIXNq1lwDwP+GECamI+f2FQCLLTZTDC5f2cxLuSpFZXyONQwurjjAfwLGNVEAbGbw+4qJik43aZwLgAr9ibGLRprSOZXd4dJPkHozvKNRSDul+hKtdkY6z+BaxfiWEMLINJddALSJAEjGazJSjquBTwOH5Eg93dvTM8rgIwZ/bUlvl3S6pCmLvUMXAK2CSZun4jxVBvmnliHP+0q8+zUNLnABMLgCoCiKDspS1kgDWj0/ufSfmd5Tt8HaNGpPvNgqiyFwvmLcMIQwYjEx6wKgjQRAR0dHRyzL9Uy6L0MQ7G1IO2fyxo0EtkE6p4WS2z2FdAxlucYSNscFQAsJgK0HcJSxpDH9vjXpxkJ696sb/LJi9PVNZHDBDWUB0NHR0WFl2QlsZnBtBrf7bKQdqx4FLLYoDkd6A9LVyW27YFB2/dJDJh0PjF3y2VwAtJ8ASJko98wQON1ncIVJG+YISJbUGXp7JwAHpjLcg1X99mWDWyS9J/T2jgkhdLgAaG0PwA1DUADMoM0qA7aiAEgL4rCUoOSBDIvHbTHG6Znf2wQaV10vSpUpm3XW/4DBT4Ftl5UFzgVA+wmAxXbcx2dKoX5qjHFi5jkfTTombe6ea1Ka6jkpOP4YSWsux+a4AGgVaCTXubTiwJ/RzCMAYqx+BAA/r5qOdhDm3KuSEZsxkIZ0cl19CyGsZo064NcOtH+p/RbpP+rIJikpAnsbnJ7OS2fXdM5/p8F3U0rsnuXOZak3VVIb6Pv6P6TXZjK2l1foxyXKUPluKX16Z8X59K6aRG+nYpyW5tKMynO+LLepYb4PQ9rQpMNMOisl4Kklwt8aieu+IemNK1y/pR0NLqmwjn3fBUC+56gcBEhj0W5aRL3FWL1cZ3vGAIw2aSOTNh1Ik7ROreNSlsGkjQfav0UNad0QQm2CEmmSNY4GDgJOpRFQWmUnN5/G9d6fm/Qpk3ZUP+dWSj62foX3tYGkLEK24thtpBo2ASaFivMp1DWPQgjDFOOUqvPdpE2tLKfU1c+iKLpjjJORdjE40uAXJt1RMXh3jkl/BL5r8CFgo/4mrpM0seI6tq4LgBYSAKlATNNy6wM7pzOuISUAnOwL+HBJvcCrTdoW6RCTvm7S2Ug3IN22jJLSfzPpGmvcXPgP4K00SldjZTnC36zTohuIDklj0rHTBsCuwEdN+gHwqxQXde+StT6QnkG6FbjMpP8ixo8hbW+NkvSTchZ+a6eXuaoIgE6D71U9I0I6sBn97e3tHYH02aoBXUifypF8xll1Fkdi7LYYh5s0kkaBrDEG45do4wzG0PDGjKSRhbDT36DThnO+U1K3SSOBUTTEwdg0x/8555HGIY0BRlmMI1SW3VXL0bsAaCEMPlu1ABKNM8DaM+shrZXBYzEX6d9yRZs7juM4LgDaUwA0Kqo9XDUbILBrze+8C6ic8x24H2lLn8WO4zjOkBYAMcYN0/WNquktfymprKufZQgl0mUZolavNmmaz2LHcRxnSAuAEMIIk36b4a7o05I+XRRFLUEh6d5t5fSuSN+OZTnRZ7HjOI4zpAVAR0dHh0mfy5DTfaHBY0gHliGMyviuRyLtnanc69NI/z7kg1gcx3EcFwAdHR0dVpYbGjydKTHE30zau7e3t7IIACYCH8qYwe1ywN3/juM4jguAfxpb6cKM2aEeQjpMA0zEEULoijFOA76SofTvP3PNG5zYjNsKjuM4zqpp/Mch7WFwywDczx9QjdmpKgqA3WtIEXk6Me4cQhi3Eu93ArCfwVUV85Mv2e5G2tFnsOM4jrMyRr+QtANwksF1BvcNIJf4/HTd7o/A9yW9W5JaRgDEGCsXBlp65rT7DS5BOkjS6st4vyMlbUwjFuEag8dy52hH+qGaWLTIcRzHaV+jPwbpVSYdYnBHMvjzM1YLm2PwpElfQdoAaTVJXYP4vMNM2sekZ2soGNGXxMALBnchXbVYuyZVh3o5FVOpo3LVs/Ldv+M4jrMCQzgC6TXp/Pm+JpUPfQLpVKSdJY0ZrGc3yaxRnWwwaqfX1pB+4TPbcRzHWSbEiMGBBn9sUg3lJduDBp83af3BeP6iKLqIcQ+Du1YhAXAHNdQqdxzHcVYBUmWw7Qx+ks6f+wbRYL1gcCnSu+qoi75CL0BZjjfpmKr1AVqkvYD0cS/84ziO4yx95y+9z+DeHJnmMrX5Bo8AR0kqmv0+YllORrpykIXQwgxFf04py1JFUfgkdxzHcRbb7UrjkQ4aQER/s9o8k75rNebYXxpFUXSUZTnNpL+2qfGfb3ChpHVDCD7RHcdxnFcY/2jS8em+emsbNOkcYJ1B8Ixsa3B3mxn/BQa/A7b1We44juMsafxl0nEZ09/W7s42+IVJ6zXzPaUbEfsY/K2NBMCNJm3vs9xxHMdZ0vgXaef/dJvtbF80OLPZpWxTPoR3G/y9Dd7Rn83v+zuO4zhLA+nANo5wf8ngJKCnySJgNNIuJv2lhQMDrzTY1qRun+WO4zjOPymKojPGuFUb7vz/JcBN0sG9vb3DmywCOiVNNrg4XVVshXfRZ/CMSf9rMU4FvMyv4ziO80pijK82+O0qktnuacX4usF4jyGEXuColB55ziBH+t+KdLCk8T7DHcdxnKUZrbHA19M5+qqS4e78EMKgXHCXNBrYyeDHBk8NwrM/bNKPgO18djuO4zjLM1g7Gdy+KuW3N5gp6QOD+V5NmkyMe5t0fpNyKcwy+JlJ70CKktzl7ziO4yzT+AP8IFWaq+feufQoMCMZp1NN+iHwO5PurfXvwjWSNhjM91sURRfSZKR3GJxr8FwNeRBeAs4EdgCiPNDPcRzHWYHx7zR4S+b68n0GL5l0F3CSleUOJo1EGmHScGuU1R0GjDBppJXl5sDhKaverMxR9C8hfXGwDWLKHNhpMJyG4trb4KJU3OiJlGxpbj/zHcwyeNzgHpMushg/bDEKGO47fsdxHKdfIBXAKVlT88JtJh2rGNctiqKrv30pQyhNOtSkGZljEX6NtG4Liq8uYpxiMe6CdBjSyQbnGfzK4BqD61K71uACgwuQTgEOkbRjCAGfwY7jOM5ABcAmmXf/VwA7FkUxbIA75W5i3NDgtIwpiJ9D2r9d3OIhhJFlWa4haWpqU3ymOo7jOHkFAHwi29U7OAfIUlfepDWBr6SrbDn69z2Ten3EHcdxHKfhAbg1V5Y5pA0lZeubpAnAyZmC5O5Dmu4j7jiO4wx5JK2dIuWrBvxdb9KWVkMAmkmlSedlCAzsA/aS1OUj7ziO4wz13f/7MhjWZ5AOGeiZ/4ooiqKTGHcwuDdDdsBvIQ33kXccx3GGugD4foZ79pcAtQapSZpAozrh3IrHAH9CGu0j7ziO4wxpDG7IEF3/0SaJlV1Tbv2qlQLH+sg7juM4Q5YQghn8o6JBfaAsy/Wb0d+yLCcbXFL1GKAsyw199B3HcZyhu/svy60NHqh4pn5pCKEpmedCCJ1Ixxm8XEkExPhOH33HcRxn6AoAaa+UTrbKmfqXm9znA1La3Cp9PtxH33Ecx3EBUM2YfrLJfd7T4GEXAI7jOI4ziAIAafdm9hnpdQZ3uwBwHMdxnEEUAJL2aGafJW1tcI8LAMdxHMcZRAFg0qea3Oe3+xGA4ziO41QzprsZPFKx+M+JTe7zezOIlk/46DuO4zhDFmLcJEN63euKomhKat2iKIYhfdNgdjsdWziO4zhOSxFCKDNk1nswxrhxM/obY1zL4LKqiYBijOv66DuO4zhDlqIoukyqmgr4eaTPNsVj0bgCeH9F9/+LinE1H33HcRxnSIN0StUdtcH1kjaos5+SMPhxhmqAM5BG+cg7juM4Q10A7JWhHPBMpKOAcTUZ/2Gpn49VFivS8eblgB3HcZyhTgiht3Ju/Ua7E3iXpBG5+xhj3MBgRoY+zkV6m6QuH3nHcRxnyGNwZQbjutDgRsX4+pzFgSRNNLggU/9uBqb5iDuO4zhOw8gekMnALjC4rQxhnUzeCZB+aDA3R/+QjoseAOg4juM4DZCmIt2bSQQsNHgcaT+kSSvrbpfUiTQOaVeDaw3mZezTHiEEH3DHcRzHSUZ3PPD1tIPPJQJmAj8yaZdYlmV/DG8IYZxJW6e+PJaxL30G50ia4qPtOI7jOImiKDqJcQeDuzIa3UXtXqQfGXzKpF2IcbqkKZJ6JK0paZpJ2xt8OGX5+0sNfXjSpI8VRdHto+04juM4i2HSakjfqJpmdzntpZR18LoUdHiRwRUG1xjcZvBshuuIS2vzkS5RWa7po+w4juM4S0HS6w1uqUkADFZ7RtJeRVH41T/HcRzHWYYA6ET6pMEzq4jxX4B0sqROH13HcRzHWb4IWM2kM2pyxze3SX9GMh9Vx3Ecx+mfCFjP4G9tLgAeAPYF3PXvOI7jOP3FGpX3nmhT4z8T6Yte9c9xHMdxVpIY4yikjxg82WbG/wWDE2JZ9hZF4Wf/juM4jrMyFEXRIWm0SZ9po6DAl036X0kTiqLwQXQcx3GcgRJCKJCOMHiwxY3/80inhxCij5rjOI7jZEDSWKT3tbAIeBLp62VZ4qPlOI7jOBkpimIY0tsNZrSY8f+7SR+NZTnJ3f6O4ziOUwMmdSNtjHR6Su07mIZ/PtJvkLYzaZSPjuM4juPUiKQOpE6TdknegJlNNvwvGtxr0gcnTpw4RpIPiuM4juM0WQxMSrcErk3FfOo0/C8Z/MmkryKt6+l9HcdxHGdwRUAX0qtNOhj4scHdmQ3/U8DZJn3WpM0kjfC37jiO4zgtQlEU3THGaPBGg08BZ5h0h8G8lTT4fQaPAecD/2mwu6Q1i6IY5m/ZcRzHcVrbKzASqcektZG2QdrPpO8Cv0T64780uNTge0gHATuYtA4QJY12V7/jOI7jrBz/D2KrA+g5iEQmAAAAJXRFWHRkYXRlOmNyZWF0ZQAyMDIxLTAxLTMxVDA2OjQ4OjA0KzAwOjAwxgCAxwAAACV0RVh0ZGF0ZTptb2RpZnkAMjAyMS0wMS0zMVQwNjo0ODowNCswMDowMLddOHsAAAAASUVORK5CYII=;" parent="1" vertex="1">
          <mxGeometry x="632.26" y="225.5" width="75.48" height="34.5" as="geometry" />
        </mxCell>
        <mxCell id="tuG5tCn2zZYMjYadL07b-7" value="&lt;font style=&quot;font-size: 14px;&quot;&gt;&lt;b&gt;Database&lt;/b&gt;&lt;/font&gt;" style="text;html=1;align=center;verticalAlign=middle;whiteSpace=wrap;rounded=0;" parent="1" vertex="1">
          <mxGeometry x="70" y="215" width="60" height="30" as="geometry" />
        </mxCell>
        <mxCell id="tuG5tCn2zZYMjYadL07b-23" style="edgeStyle=orthogonalEdgeStyle;rounded=0;orthogonalLoop=1;jettySize=auto;html=1;exitX=0.5;exitY=1;exitDx=0;exitDy=0;exitPerimeter=0;entryX=0.5;entryY=0;entryDx=0;entryDy=0;dashed=1;endArrow=none;endFill=0;" parent="1" source="tuG5tCn2zZYMjYadL07b-9" target="tuG5tCn2zZYMjYadL07b-18" edge="1">
          <mxGeometry relative="1" as="geometry" />
        </mxCell>
        <mxCell id="tuG5tCn2zZYMjYadL07b-9" value="Outbox&lt;div&gt;Table&lt;/div&gt;" style="shape=cylinder3;whiteSpace=wrap;html=1;boundedLbl=1;backgroundOutline=1;size=15;fillColor=#e1d5e7;strokeColor=#9673a6;" parent="1" vertex="1">
          <mxGeometry x="280" y="250" width="60" height="80" as="geometry" />
        </mxCell>
        <mxCell id="tuG5tCn2zZYMjYadL07b-10" value="Order&lt;div&gt;Table&lt;/div&gt;" style="shape=cylinder3;whiteSpace=wrap;html=1;boundedLbl=1;backgroundOutline=1;size=15;fillColor=#e1d5e7;strokeColor=#9673a6;" parent="1" vertex="1">
          <mxGeometry x="130" y="250" width="60" height="80" as="geometry" />
        </mxCell>
        <mxCell id="tuG5tCn2zZYMjYadL07b-11" style="edgeStyle=orthogonalEdgeStyle;rounded=0;orthogonalLoop=1;jettySize=auto;html=1;exitX=0.5;exitY=1;exitDx=0;exitDy=0;entryX=0.5;entryY=0;entryDx=0;entryDy=0;entryPerimeter=0;" parent="1" source="tuG5tCn2zZYMjYadL07b-1" target="tuG5tCn2zZYMjYadL07b-10" edge="1">
          <mxGeometry relative="1" as="geometry">
            <Array as="points">
              <mxPoint x="230" y="190" />
              <mxPoint x="160" y="190" />
            </Array>
          </mxGeometry>
        </mxCell>
        <mxCell id="tuG5tCn2zZYMjYadL07b-13" style="edgeStyle=orthogonalEdgeStyle;rounded=0;orthogonalLoop=1;jettySize=auto;html=1;exitX=0.5;exitY=1;exitDx=0;exitDy=0;entryX=0.5;entryY=0;entryDx=0;entryDy=0;entryPerimeter=0;" parent="1" source="tuG5tCn2zZYMjYadL07b-1" target="tuG5tCn2zZYMjYadL07b-9" edge="1">
          <mxGeometry relative="1" as="geometry" />
        </mxCell>
        <mxCell id="tuG5tCn2zZYMjYadL07b-14" value="Order Table" style="swimlane;fontStyle=0;childLayout=stackLayout;horizontal=1;startSize=30;horizontalStack=0;resizeParent=1;resizeParentMax=0;resizeLast=0;collapsible=1;marginBottom=0;whiteSpace=wrap;html=1;" parent="1" vertex="1">
          <mxGeometry x="90" y="400" width="140" height="200" as="geometry" />
        </mxCell>
        <mxCell id="tuG5tCn2zZYMjYadL07b-15" value="id - UUID" style="text;strokeColor=none;fillColor=none;align=left;verticalAlign=middle;spacingLeft=4;spacingRight=4;overflow=hidden;points=[[0,0.5],[1,0.5]];portConstraint=eastwest;rotatable=0;whiteSpace=wrap;html=1;" parent="tuG5tCn2zZYMjYadL07b-14" vertex="1">
          <mxGeometry y="30" width="140" height="30" as="geometry" />
        </mxCell>
        <mxCell id="tuG5tCn2zZYMjYadL07b-16" value="product_name - varchar" style="text;strokeColor=none;fillColor=none;align=left;verticalAlign=middle;spacingLeft=4;spacingRight=4;overflow=hidden;points=[[0,0.5],[1,0.5]];portConstraint=eastwest;rotatable=0;whiteSpace=wrap;html=1;" parent="tuG5tCn2zZYMjYadL07b-14" vertex="1">
          <mxGeometry y="60" width="140" height="30" as="geometry" />
        </mxCell>
        <mxCell id="tuG5tCn2zZYMjYadL07b-17" value="quantity - integer" style="text;strokeColor=none;fillColor=none;align=left;verticalAlign=middle;spacingLeft=4;spacingRight=4;overflow=hidden;points=[[0,0.5],[1,0.5]];portConstraint=eastwest;rotatable=0;whiteSpace=wrap;html=1;" parent="tuG5tCn2zZYMjYadL07b-14" vertex="1">
          <mxGeometry y="90" width="140" height="30" as="geometry" />
        </mxCell>
        <mxCell id="tuG5tCn2zZYMjYadL07b-30" value="status - varchar" style="text;strokeColor=none;fillColor=none;align=left;verticalAlign=middle;spacingLeft=4;spacingRight=4;overflow=hidden;points=[[0,0.5],[1,0.5]];portConstraint=eastwest;rotatable=0;whiteSpace=wrap;html=1;" parent="tuG5tCn2zZYMjYadL07b-14" vertex="1">
          <mxGeometry y="120" width="140" height="30" as="geometry" />
        </mxCell>
        <mxCell id="tuG5tCn2zZYMjYadL07b-31" value="created_date - timestamp with time zone" style="text;strokeColor=none;fillColor=none;align=left;verticalAlign=middle;spacingLeft=4;spacingRight=4;overflow=hidden;points=[[0,0.5],[1,0.5]];portConstraint=eastwest;rotatable=0;whiteSpace=wrap;html=1;" parent="tuG5tCn2zZYMjYadL07b-14" vertex="1">
          <mxGeometry y="150" width="140" height="50" as="geometry" />
        </mxCell>
        <mxCell id="tuG5tCn2zZYMjYadL07b-18" value="Outbox Table" style="swimlane;fontStyle=0;childLayout=stackLayout;horizontal=1;startSize=30;horizontalStack=0;resizeParent=1;resizeParentMax=0;resizeLast=0;collapsible=1;marginBottom=0;whiteSpace=wrap;html=1;" parent="1" vertex="1">
          <mxGeometry x="240" y="400" width="140" height="120" as="geometry" />
        </mxCell>
        <mxCell id="tuG5tCn2zZYMjYadL07b-19" value="id - UUID" style="text;strokeColor=none;fillColor=none;align=left;verticalAlign=middle;spacingLeft=4;spacingRight=4;overflow=hidden;points=[[0,0.5],[1,0.5]];portConstraint=eastwest;rotatable=0;whiteSpace=wrap;html=1;" parent="tuG5tCn2zZYMjYadL07b-18" vertex="1">
          <mxGeometry y="30" width="140" height="30" as="geometry" />
        </mxCell>
        <mxCell id="tuG5tCn2zZYMjYadL07b-20" value="event_type - varchar" style="text;strokeColor=none;fillColor=none;align=left;verticalAlign=middle;spacingLeft=4;spacingRight=4;overflow=hidden;points=[[0,0.5],[1,0.5]];portConstraint=eastwest;rotatable=0;whiteSpace=wrap;html=1;" parent="tuG5tCn2zZYMjYadL07b-18" vertex="1">
          <mxGeometry y="60" width="140" height="30" as="geometry" />
        </mxCell>
        <mxCell id="tuG5tCn2zZYMjYadL07b-21" value="event_payload - varchar" style="text;strokeColor=none;fillColor=none;align=left;verticalAlign=middle;spacingLeft=4;spacingRight=4;overflow=hidden;points=[[0,0.5],[1,0.5]];portConstraint=eastwest;rotatable=0;whiteSpace=wrap;html=1;" parent="tuG5tCn2zZYMjYadL07b-18" vertex="1">
          <mxGeometry y="90" width="140" height="30" as="geometry" />
        </mxCell>
        <mxCell id="tuG5tCn2zZYMjYadL07b-24" style="edgeStyle=orthogonalEdgeStyle;rounded=0;orthogonalLoop=1;jettySize=auto;html=1;exitX=0.5;exitY=0;exitDx=0;exitDy=0;entryX=0.5;entryY=1;entryDx=0;entryDy=0;entryPerimeter=0;endArrow=none;endFill=0;dashed=1;" parent="1" source="tuG5tCn2zZYMjYadL07b-14" target="tuG5tCn2zZYMjYadL07b-10" edge="1">
          <mxGeometry relative="1" as="geometry" />
        </mxCell>
        <mxCell id="tuG5tCn2zZYMjYadL07b-25" value="&lt;font style=&quot;font-size: 19px;&quot;&gt;&lt;b&gt;1&lt;/b&gt;&lt;/font&gt;" style="text;html=1;align=center;verticalAlign=middle;whiteSpace=wrap;rounded=0;" parent="1" vertex="1">
          <mxGeometry x="220" y="140" width="60" height="30" as="geometry" />
        </mxCell>
        <mxCell id="tuG5tCn2zZYMjYadL07b-26" value="&lt;font style=&quot;font-size: 19px;&quot;&gt;&lt;b&gt;2&lt;/b&gt;&lt;/font&gt;" style="text;html=1;align=center;verticalAlign=middle;whiteSpace=wrap;rounded=0;" parent="1" vertex="1">
          <mxGeometry x="400" y="260" width="60" height="30" as="geometry" />
        </mxCell>
        <mxCell id="tuG5tCn2zZYMjYadL07b-28" value="&lt;font style=&quot;font-size: 19px;&quot;&gt;&lt;b&gt;3&lt;/b&gt;&lt;/font&gt;" style="text;html=1;align=center;verticalAlign=middle;whiteSpace=wrap;rounded=0;" parent="1" vertex="1">
          <mxGeometry x="560" y="260" width="60" height="30" as="geometry" />
        </mxCell>
        <mxCell id="tuG5tCn2zZYMjYadL07b-29" value="1 - Creation or Cancelled Order has been sent&lt;div&gt;2 - Service Outbox get all data in the Outbox Database&lt;/div&gt;&lt;div&gt;3 -&amp;nbsp;Data from Output Database has been sent to Apache Kafka&lt;/div&gt;&lt;div&gt;4 - Microservices consumes data from Apache Kafka&lt;/div&gt;" style="text;html=1;align=left;verticalAlign=middle;whiteSpace=wrap;rounded=0;" parent="1" vertex="1">
          <mxGeometry x="440" y="420" width="360" height="30" as="geometry" />
        </mxCell>
        <mxCell id="Z3jpUJO319Im8hQf2vFq-3" value="Microservice A" style="rounded=0;whiteSpace=wrap;html=1;fillColor=#d5e8d4;strokeColor=#82b366;" vertex="1" parent="1">
          <mxGeometry x="800" y="215" width="100" height="35" as="geometry" />
        </mxCell>
        <mxCell id="Z3jpUJO319Im8hQf2vFq-5" value="Microservice B" style="rounded=0;whiteSpace=wrap;html=1;fillColor=#d5e8d4;strokeColor=#82b366;" vertex="1" parent="1">
          <mxGeometry x="800" y="272.5" width="100" height="35" as="geometry" />
        </mxCell>
        <mxCell id="Z3jpUJO319Im8hQf2vFq-6" value="Microservice C" style="rounded=0;whiteSpace=wrap;html=1;fillColor=#d5e8d4;strokeColor=#82b366;" vertex="1" parent="1">
          <mxGeometry x="800" y="330" width="100" height="35" as="geometry" />
        </mxCell>
        <mxCell id="Z3jpUJO319Im8hQf2vFq-9" value="&lt;font style=&quot;font-size: 19px;&quot;&gt;&lt;b&gt;4&lt;/b&gt;&lt;/font&gt;" style="text;html=1;align=center;verticalAlign=middle;whiteSpace=wrap;rounded=0;" vertex="1" parent="1">
          <mxGeometry x="710" y="260" width="60" height="30" as="geometry" />
        </mxCell>
        <mxCell id="Z3jpUJO319Im8hQf2vFq-10" value="Partition A" style="rounded=0;whiteSpace=wrap;html=1;" vertex="1" parent="1">
          <mxGeometry x="625" y="275" width="90" height="30" as="geometry" />
        </mxCell>
      </root>
    </mxGraphModel>
  </diagram>
</mxfile>
